{"glyphs":{"0":{"ha":1017,"x_min":0,"x_max":1083,"o":"m 134 949 l 1083 949 l 949 0 l 0 0 l 134 949 m 367 678 l 309 271 l 716 271 l 774 678 l 367 678 z "},"1":{"ha":339,"x_min":0,"x_max":405,"o":"m 271 0 l 0 0 l 134 949 l 405 949 l 271 0 z "},"2":{"ha":1017,"x_min":0,"x_max":1083,"o":"m 774 678 l 96 678 l 134 949 l 1083 949 l 997 339 l 319 339 l 309 271 l 987 271 l 949 0 l 0 0 l 85 610 l 764 610 l 774 678 z "},"3":{"ha":1017,"x_min":0,"x_max":1083,"o":"m 774 678 l 96 678 l 134 949 l 1083 949 l 949 0 l 0 0 l 38 271 l 716 271 l 726 339 l 47 339 l 85 610 l 764 610 l 774 678 z "},"4":{"ha":1017,"x_min":28,"x_max":1083,"o":"m 812 949 l 1083 949 l 949 0 l 678 0 l 707 203 l 28 203 l 134 949 l 405 949 l 338 475 l 745 475 l 812 949 z "},"5":{"ha":1017,"x_min":0,"x_max":1083,"o":"m 0 0 l 38 271 l 716 271 l 726 339 l 47 339 l 134 949 l 1083 949 l 1045 678 l 367 678 l 357 610 l 1035 610 l 949 0 l 0 0 z "},"6":{"ha":1017,"x_min":0,"x_max":1083,"o":"m 319 339 l 309 271 l 716 271 l 726 339 l 319 339 m 357 610 l 1035 610 l 949 0 l 0 0 l 134 949 l 1083 949 l 1045 678 l 367 678 l 357 610 z "},"7":{"ha":1017,"x_min":0,"x_max":1083,"o":"m 582 678 l 96 678 l 134 949 l 1083 949 l 1056 758 l 192 0 l 0 0 l 27 192 l 582 678 z "},"8":{"ha":1017,"x_min":0,"x_max":1083,"o":"m 0 0 l 134 949 l 1083 949 l 949 0 l 0 0 m 367 678 l 357 610 l 764 610 l 774 678 l 367 678 m 309 271 l 716 271 l 726 339 l 319 339 l 309 271 z "},"9":{"ha":1017,"x_min":0,"x_max":1083,"o":"m 764 610 l 774 678 l 367 678 l 357 610 l 764 610 m 726 339 l 47 339 l 134 949 l 1083 949 l 949 0 l 0 0 l 38 271 l 716 271 l 726 339 z "},"\u0000":{"ha":0,"x_min":0,"x_max":0,"o":""},"\u001d":{"ha":0,"x_min":0,"x_max":0,"o":""}," ":{"ha":345,"x_min":0,"x_max":0,"o":""}," ":{"ha":345,"x_min":0,"x_max":0,"o":""},"!":{"ha":339,"x_min":0,"x_max":405,"o":"m 271 0 l 0 0 l 38 271 l 309 271 l 271 0 m 319 339 l 47 339 l 134 949 l 405 949 l 319 339 z "},"\"":{"ha":678,"x_min":76,"x_max":744,"o":"m 347 543 l 76 543 l 134 949 l 405 949 l 347 543 m 686 543 l 415 543 l 473 949 l 744 949 l 686 543 z "},"#":{"ha":1017,"x_min":19,"x_max":1064,"o":"m 193 407 l 212 543 l 76 543 l 115 814 l 250 814 l 269 949 l 541 949 l 522 814 l 657 814 l 676 949 l 947 949 l 928 814 l 1064 814 l 1025 543 l 890 543 l 871 407 l 1006 407 l 968 136 l 833 136 l 814 0 l 543 0 l 562 136 l 426 136 l 407 0 l 136 0 l 155 136 l 19 136 l 57 407 l 193 407 m 483 543 l 464 407 l 600 407 l 618 543 l 483 543 z "},"$":{"ha":1017,"x_min":0,"x_max":1083,"o":"m 610 0 l 591 -136 l 320 -136 l 339 0 l 0 0 l 38 271 l 377 271 l 387 339 l 47 339 l 134 949 l 473 949 l 492 1085 l 763 1085 l 744 949 l 1083 949 l 1045 678 l 706 678 l 696 610 l 1035 610 l 949 0 l 610 0 m 435 678 l 367 678 l 357 610 l 425 610 l 435 678 m 648 271 l 716 271 l 726 339 l 658 339 l 648 271 z "},"%":{"ha":1017,"x_min":0,"x_max":1083,"o":"m 192 0 l 0 0 l 27 192 l 891 949 l 1083 949 l 1056 758 l 192 0 m 367 678 l 96 678 l 134 949 l 405 949 l 367 678 m 949 0 l 678 0 l 716 271 l 987 271 l 949 0 z "},"&":{"ha":1017,"x_min":0,"x_max":1035,"o":"m 0 0 l 134 949 l 676 949 l 638 678 l 367 678 l 357 610 l 696 610 l 706 678 l 977 678 l 967 610 l 1035 610 l 997 339 l 929 339 l 920 271 l 987 271 l 949 0 l 0 0 m 658 339 l 319 339 l 309 271 l 648 271 l 658 339 z "},"'":{"ha":339,"x_min":76,"x_max":405,"o":"m 347 543 l 76 543 l 134 949 l 405 949 l 347 543 z "},"(":{"ha":543,"x_min":-19,"x_max":627,"o":"m 627 1085 l 589 814 l 386 814 l 290 136 l 494 136 l 456 -136 l -19 -136 l 153 1085 l 627 1085 z "},")":{"ha":543,"x_min":-19,"x_max":627,"o":"m 153 1085 l 627 1085 l 456 -136 l -19 -136 l 19 136 l 222 136 l 318 814 l 115 814 l 153 1085 z "},"*":{"ha":814,"x_min":54,"x_max":854,"o":"m 351 811 l 371 949 l 642 949 l 623 811 l 751 880 l 854 646 l 725 576 l 835 507 l 666 273 l 557 342 l 537 203 l 266 203 l 286 342 l 156 273 l 54 507 l 183 576 l 73 646 l 241 880 l 351 811 z "},"+":{"ha":814,"x_min":47,"x_max":831,"o":"m 285 339 l 47 339 l 85 610 l 323 610 l 357 848 l 628 848 l 594 610 l 831 610 l 793 339 l 556 339 l 523 102 l 252 102 l 285 339 z "},",":{"ha":339,"x_min":-19,"x_max":309,"o":"m 252 -136 l -19 -136 l 38 271 l 309 271 l 252 -136 z "},"-":{"ha":814,"x_min":47,"x_max":831,"o":"m 85 610 l 831 610 l 793 339 l 47 339 l 85 610 z "},"­":{"ha":814,"x_min":47,"x_max":831,"o":"m 85 610 l 831 610 l 793 339 l 47 339 l 85 610 z "},".":{"ha":339,"x_min":0,"x_max":309,"o":"m 271 0 l 0 0 l 38 271 l 309 271 l 271 0 z "},"/":{"ha":1017,"x_min":0,"x_max":1083,"o":"m 192 0 l 0 0 l 27 192 l 891 949 l 1083 949 l 1056 758 l 192 0 z "},":":{"ha":339,"x_min":0,"x_max":369,"o":"m 271 0 l 0 0 l 38 271 l 309 271 l 271 0 m 331 423 l 60 423 l 98 694 l 369 694 l 331 423 z "},";":{"ha":339,"x_min":-19,"x_max":369,"o":"m 252 -136 l -19 -136 l 38 271 l 309 271 l 252 -136 m 331 423 l 60 423 l 98 694 l 369 694 l 331 423 z "},";":{"ha":339,"x_min":-19,"x_max":369,"o":"m 252 -136 l -19 -136 l 38 271 l 309 271 l 252 -136 m 331 423 l 60 423 l 98 694 l 369 694 l 331 423 z "},"<":{"ha":746,"x_min":78,"x_max":812,"o":"m 462 475 l 705 192 l 678 0 l 486 0 l 78 475 l 620 949 l 812 949 l 785 758 l 462 475 z "},"=":{"ha":814,"x_min":24,"x_max":856,"o":"m 62 441 l 808 441 l 770 170 l 24 170 l 62 441 m 110 780 l 856 780 l 817 509 l 71 509 l 110 780 z "},">":{"ha":746,"x_min":0,"x_max":733,"o":"m 349 475 l 106 758 l 134 949 l 326 949 l 733 475 l 192 0 l 0 0 l 27 192 l 349 475 z "},"?":{"ha":1017,"x_min":0,"x_max":1083,"o":"m 774 678 l 96 678 l 134 949 l 1083 949 l 997 339 l 47 339 l 85 610 l 764 610 l 774 678 m 271 0 l 0 0 l 38 271 l 309 271 l 271 0 z "},"@":{"ha":1017,"x_min":0,"x_max":1083,"o":"m 309 271 l 987 271 l 949 0 l 0 0 l 134 949 l 1083 949 l 997 339 l 590 339 l 628 610 l 764 610 l 774 678 l 367 678 l 309 271 z "},"A":{"ha":1017,"x_min":0,"x_max":1083,"o":"m 134 949 l 1083 949 l 949 0 l 678 0 l 707 203 l 300 203 l 271 0 l 0 0 l 134 949 m 367 678 l 338 475 l 745 475 l 774 678 l 367 678 z "},"B":{"ha":1017,"x_min":0,"x_max":1083,"o":"m 0 0 l 134 949 l 1083 949 l 949 0 l 0 0 m 367 678 l 357 610 l 764 610 l 774 678 l 367 678 m 309 271 l 716 271 l 726 339 l 319 339 l 309 271 z "},"C":{"ha":1017,"x_min":0,"x_max":1083,"o":"m 716 271 l 735 407 l 1006 407 l 949 0 l 0 0 l 134 949 l 1083 949 l 1025 543 l 754 543 l 774 678 l 367 678 l 309 271 l 716 271 z "},"D":{"ha":1017,"x_min":0,"x_max":1083,"o":"m 0 0 l 134 949 l 1083 949 l 989 283 l 667 0 l 0 0 m 309 271 l 592 271 l 734 395 l 774 678 l 367 678 l 309 271 z "},"E":{"ha":1017,"x_min":0,"x_max":1083,"o":"m 309 271 l 987 271 l 949 0 l 0 0 l 134 949 l 1083 949 l 1045 678 l 367 678 l 357 610 l 1035 610 l 997 339 l 319 339 l 309 271 z "},"F":{"ha":1017,"x_min":0,"x_max":1083,"o":"m 1083 949 l 1045 678 l 367 678 l 357 610 l 1035 610 l 997 339 l 319 339 l 271 0 l 0 0 l 134 949 l 1083 949 z "},"G":{"ha":1017,"x_min":0,"x_max":1083,"o":"m 1083 949 l 1045 678 l 367 678 l 309 271 l 716 271 l 726 339 l 590 339 l 628 610 l 1035 610 l 949 0 l 0 0 l 134 949 l 1083 949 z "},"H":{"ha":1017,"x_min":0,"x_max":1083,"o":"m 319 339 l 271 0 l 0 0 l 134 949 l 405 949 l 357 610 l 764 610 l 812 949 l 1083 949 l 949 0 l 678 0 l 726 339 l 319 339 z "},"I":{"ha":339,"x_min":0,"x_max":405,"o":"m 271 0 l 0 0 l 134 949 l 405 949 l 271 0 z "},"J":{"ha":1017,"x_min":0,"x_max":1083,"o":"m 716 271 l 812 949 l 1083 949 l 949 0 l 0 0 l 57 407 l 328 407 l 309 271 l 716 271 z "},"K":{"ha":1017,"x_min":0,"x_max":1083,"o":"m 319 339 l 271 0 l 0 0 l 134 949 l 405 949 l 357 610 l 504 610 l 891 949 l 1083 949 l 1056 758 l 733 475 l 977 192 l 949 0 l 758 0 l 466 339 l 319 339 z "},"L":{"ha":1017,"x_min":0,"x_max":1006,"o":"m 134 949 l 405 949 l 309 271 l 716 271 l 735 407 l 1006 407 l 949 0 l 0 0 l 134 949 z "},"M":{"ha":1017,"x_min":0,"x_max":1083,"o":"m 367 678 l 271 0 l 0 0 l 134 949 l 1083 949 l 949 0 l 678 0 l 774 678 l 706 678 l 610 0 l 339 0 l 435 678 l 367 678 z "},"N":{"ha":1017,"x_min":0,"x_max":1083,"o":"m 743 463 l 812 949 l 1083 949 l 949 0 l 758 0 l 340 486 l 271 0 l 0 0 l 134 949 l 326 949 l 743 463 z "},"O":{"ha":1017,"x_min":0,"x_max":1083,"o":"m 134 949 l 1083 949 l 949 0 l 0 0 l 134 949 m 367 678 l 309 271 l 716 271 l 774 678 l 367 678 z "},"P":{"ha":1017,"x_min":0,"x_max":1083,"o":"m 134 949 l 1083 949 l 978 203 l 300 203 l 271 0 l 0 0 l 134 949 m 367 678 l 338 475 l 745 475 l 774 678 l 367 678 z "},"Q":{"ha":1017,"x_min":0,"x_max":1083,"o":"m 134 949 l 1083 949 l 949 0 l 814 0 l 989 -203 l 606 -203 l 431 0 l 0 0 l 134 949 m 367 678 l 309 271 l 716 271 l 774 678 l 367 678 z "},"R":{"ha":1017,"x_min":0,"x_max":1083,"o":"m 367 678 l 338 475 l 745 475 l 774 678 l 367 678 m 313 295 l 271 0 l 0 0 l 134 949 l 1083 949 l 978 203 l 775 203 l 950 0 l 566 0 l 313 295 z "},"S":{"ha":1017,"x_min":0,"x_max":1083,"o":"m 0 0 l 38 271 l 716 271 l 726 339 l 47 339 l 134 949 l 1083 949 l 1045 678 l 367 678 l 357 610 l 1035 610 l 949 0 l 0 0 z "},"T":{"ha":1017,"x_min":96,"x_max":1083,"o":"m 706 678 l 610 0 l 339 0 l 435 678 l 96 678 l 134 949 l 1083 949 l 1045 678 l 706 678 z "},"U":{"ha":1017,"x_min":0,"x_max":1083,"o":"m 134 949 l 405 949 l 309 271 l 716 271 l 812 949 l 1083 949 l 949 0 l 0 0 l 134 949 z "},"V":{"ha":1017,"x_min":57,"x_max":1083,"o":"m 134 949 l 405 949 l 345 519 l 519 316 l 519 317 l 751 520 l 812 949 l 1083 949 l 1006 408 l 542 0 l 407 0 l 57 407 l 134 949 z "},"W":{"ha":1017,"x_min":0,"x_max":1083,"o":"m 134 949 l 405 949 l 309 271 l 377 271 l 473 949 l 744 949 l 648 271 l 716 271 l 812 949 l 1083 949 l 949 0 l 0 0 l 134 949 z "},"X":{"ha":1017,"x_min":0,"x_max":1083,"o":"m 733 475 l 977 192 l 949 0 l 758 0 l 515 283 l 192 0 l 0 0 l 27 192 l 349 475 l 106 758 l 134 949 l 326 949 l 568 667 l 891 949 l 1083 949 l 1056 758 l 733 475 z "},"Y":{"ha":1017,"x_min":106,"x_max":1083,"o":"m 568 667 l 891 949 l 1083 949 l 1056 758 l 669 418 l 610 0 l 339 0 l 398 418 l 106 758 l 134 949 l 326 949 l 568 667 z "},"Z":{"ha":1017,"x_min":0,"x_max":1083,"o":"m 501 271 l 987 271 l 949 0 l 0 0 l 27 192 l 582 678 l 96 678 l 134 949 l 1083 949 l 1056 758 l 501 271 z "},"[":{"ha":543,"x_min":-19,"x_max":627,"o":"m 627 1085 l 589 814 l 386 814 l 290 136 l 494 136 l 456 -136 l -19 -136 l 153 1085 l 627 1085 z "},"\\":{"ha":1017,"x_min":106,"x_max":977,"o":"m 758 0 l 106 758 l 134 949 l 326 949 l 977 192 l 949 0 l 758 0 z "},"]":{"ha":543,"x_min":-19,"x_max":627,"o":"m 153 1085 l 627 1085 l 456 -136 l -19 -136 l 19 136 l 222 136 l 318 814 l 115 814 l 153 1085 z "},"^":{"ha":339,"x_min":76,"x_max":405,"o":"m 347 543 l 76 543 l 134 949 l 405 949 l 347 543 z "},"_":{"ha":814,"x_min":0,"x_max":784,"o":"m 38 271 l 784 271 l 746 0 l 0 0 l 38 271 z "},"`":{"ha":339,"x_min":76,"x_max":405,"o":"m 347 543 l 76 543 l 134 949 l 405 949 l 347 543 z "},"a":{"ha":1017,"x_min":0,"x_max":1083,"o":"m 774 678 l 96 678 l 134 949 l 1083 949 l 949 0 l 0 0 l 85 610 l 764 610 l 774 678 m 716 271 l 726 339 l 319 339 l 309 271 l 716 271 z "},"b":{"ha":1017,"x_min":0,"x_max":1083,"o":"m 774 678 l 367 678 l 309 271 l 716 271 l 774 678 m 1083 949 l 949 0 l 0 0 l 162 1153 l 433 1153 l 405 949 l 1083 949 z "},"c":{"ha":1017,"x_min":0,"x_max":1083,"o":"m 716 271 l 735 407 l 1006 407 l 949 0 l 0 0 l 134 949 l 1083 949 l 1025 543 l 754 543 l 774 678 l 367 678 l 309 271 l 716 271 z "},"d":{"ha":1017,"x_min":0,"x_max":1112,"o":"m 367 678 l 309 271 l 716 271 l 774 678 l 367 678 m 134 949 l 812 949 l 840 1153 l 1112 1153 l 949 0 l 0 0 l 134 949 z "},"e":{"ha":1017,"x_min":0,"x_max":1083,"o":"m 309 271 l 987 271 l 949 0 l 0 0 l 134 949 l 1083 949 l 997 339 l 319 339 l 309 271 m 367 678 l 357 610 l 764 610 l 774 678 l 367 678 z "},"f":{"ha":814,"x_min":0,"x_max":908,"o":"m 0 0 l 162 1153 l 908 1153 l 870 882 l 395 882 l 357 610 l 831 610 l 793 339 l 319 339 l 271 0 l 0 0 z "},"g":{"ha":1017,"x_min":0,"x_max":1083,"o":"m 764 610 l 774 678 l 367 678 l 357 610 l 764 610 m 726 339 l 47 339 l 134 949 l 1083 949 l 949 0 l 0 0 l 38 271 l 716 271 l 726 339 z "},"h":{"ha":1017,"x_min":0,"x_max":1083,"o":"m 271 0 l 0 0 l 162 1153 l 433 1153 l 405 949 l 1083 949 l 949 0 l 678 0 l 774 678 l 367 678 l 271 0 z "},"i":{"ha":339,"x_min":0,"x_max":405,"o":"m 271 0 l 0 0 l 134 949 l 405 949 l 271 0 z "},"j":{"ha":1017,"x_min":0,"x_max":1083,"o":"m 716 271 l 812 949 l 1083 949 l 949 0 l 0 0 l 57 407 l 328 407 l 309 271 l 716 271 z "},"k":{"ha":1017,"x_min":0,"x_max":1083,"o":"m 319 339 l 271 0 l 0 0 l 162 1153 l 433 1153 l 357 610 l 504 610 l 891 949 l 1083 949 l 1056 758 l 733 475 l 977 192 l 949 0 l 758 0 l 466 339 l 319 339 z "},"l":{"ha":339,"x_min":0,"x_max":433,"o":"m 271 0 l 0 0 l 162 1153 l 433 1153 l 271 0 z "},"m":{"ha":1017,"x_min":0,"x_max":1083,"o":"m 367 678 l 271 0 l 0 0 l 134 949 l 1083 949 l 949 0 l 678 0 l 774 678 l 706 678 l 610 0 l 339 0 l 435 678 l 367 678 z "},"n":{"ha":1017,"x_min":0,"x_max":1083,"o":"m 367 678 l 271 0 l 0 0 l 134 949 l 1083 949 l 949 0 l 678 0 l 774 678 l 367 678 z "},"o":{"ha":1017,"x_min":0,"x_max":1083,"o":"m 134 949 l 1083 949 l 949 0 l 0 0 l 134 949 m 367 678 l 309 271 l 716 271 l 774 678 l 367 678 z "},"p":{"ha":1017,"x_min":-28,"x_max":1083,"o":"m 716 271 l 774 678 l 367 678 l 309 271 l 716 271 m 949 0 l 271 0 l 243 -203 l -28 -203 l 134 949 l 1083 949 l 949 0 z "},"q":{"ha":1017,"x_min":0,"x_max":1083,"o":"m 309 271 l 716 271 l 774 678 l 367 678 l 309 271 m 0 0 l 134 949 l 1083 949 l 921 -203 l 650 -203 l 678 0 l 0 0 z "},"r":{"ha":1017,"x_min":0,"x_max":1083,"o":"m 367 678 l 271 0 l 0 0 l 134 949 l 1083 949 l 1025 543 l 754 543 l 774 678 l 367 678 z "},"s":{"ha":1017,"x_min":0,"x_max":1083,"o":"m 0 0 l 38 271 l 716 271 l 726 339 l 47 339 l 134 949 l 1083 949 l 1045 678 l 367 678 l 357 610 l 1035 610 l 949 0 l 0 0 z "},"t":{"ha":1017,"x_min":0,"x_max":1083,"o":"m 162 1153 l 433 1153 l 405 949 l 1083 949 l 1045 678 l 367 678 l 309 271 l 987 271 l 949 0 l 0 0 l 162 1153 z "},"u":{"ha":1017,"x_min":0,"x_max":1083,"o":"m 134 949 l 405 949 l 309 271 l 716 271 l 812 949 l 1083 949 l 949 0 l 0 0 l 134 949 z "},"v":{"ha":1017,"x_min":57,"x_max":1083,"o":"m 134 949 l 405 949 l 345 519 l 519 316 l 519 317 l 751 520 l 812 949 l 1083 949 l 1006 408 l 542 0 l 407 0 l 57 407 l 134 949 z "},"w":{"ha":1017,"x_min":0,"x_max":1083,"o":"m 134 949 l 405 949 l 309 271 l 377 271 l 473 949 l 744 949 l 648 271 l 716 271 l 812 949 l 1083 949 l 949 0 l 0 0 l 134 949 z "},"x":{"ha":1017,"x_min":0,"x_max":1083,"o":"m 733 475 l 977 192 l 949 0 l 758 0 l 515 283 l 192 0 l 0 0 l 27 192 l 349 475 l 106 758 l 134 949 l 326 949 l 568 667 l 891 949 l 1083 949 l 1056 758 l 733 475 z "},"y":{"ha":1017,"x_min":0,"x_max":1083,"o":"m 812 949 l 1083 949 l 921 -203 l 650 -203 l 678 0 l 0 0 l 134 949 l 405 949 l 309 271 l 716 271 l 812 949 z "},"z":{"ha":1017,"x_min":0,"x_max":1083,"o":"m 501 271 l 987 271 l 949 0 l 0 0 l 27 192 l 582 678 l 96 678 l 134 949 l 1083 949 l 1056 758 l 501 271 z "},"{":{"ha":678,"x_min":47,"x_max":763,"o":"m 221 610 l 288 1085 l 763 1085 l 725 814 l 522 814 l 426 136 l 629 136 l 591 -136 l 117 -136 l 183 339 l 47 339 l 85 610 l 221 610 z "},"|":{"ha":339,"x_min":0,"x_max":433,"o":"m 271 0 l 0 0 l 162 1153 l 433 1153 l 271 0 z "},"}":{"ha":678,"x_min":-19,"x_max":696,"o":"m 560 610 l 696 610 l 658 339 l 522 339 l 456 -136 l -19 -136 l 19 136 l 222 136 l 318 814 l 115 814 l 153 1085 l 627 1085 l 560 610 z "},"~":{"ha":814,"x_min":47,"x_max":831,"o":"m 85 610 l 831 610 l 793 339 l 47 339 l 85 610 z "}}}
